<svg xmlns="http://www.w3.org/2000/svg" viewBox="0 0 49 49" fill="#000000" stroke="#000000"><path fill="#000000" stroke="none" d="M24.5 44 C24.5 44 24.5 28 24.5 20" stroke-width="2.5" stroke-linecap="round"/><line x1="24.5" y1="44" x2="24.5" y2="20" stroke="#000000" stroke-width="2.5" stroke-linecap="round"/><path fill="#000000" stroke="none" d="M24.5 28 C20 22 12 20 12 20 C12 20 14 28 20 31 C22.5 32 24.5 31 24.5 28Z"/><path fill="#000000" stroke="none" d="M24.5 28 C29 22 37 20 37 20 C37 20 35 28 29 31 C26.5 32 24.5 31 24.5 28Z"/><path fill="#000000" stroke="none" d="M24.5 20 C20 14 12 12 12 12 C12 12 14 20 20 23 C22.5 24 24.5 23 24.5 20Z"/><path fill="#000000" stroke="none" d="M24.5 20 C29 14 37 12 37 12 C37 12 35 20 29 23 C26.5 24 24.5 23 24.5 20Z"/><path fill="#000000" stroke="none" d="M24.5 14 C24.5 10 24.5 6 24.5 6 C24.5 6 28 10 27 14 C26.5 16 24.5 15 24.5 14Z"/></svg>
