<svg xmlns="http://www.w3.org/2000/svg" viewBox="0 0 49 49" fill="#000000" stroke="#000000"><path fill="#000000" stroke="none" d="M24.5 42 C18 42 8 36 8 24 C8 14 16 8 24 8 C28 8 32 10 35 13 C38 16 39.5 20 39.5 24 C39.5 34 32 42 24.5 42Z"/><path fill="#000000" stroke="none" d="M24.5 42 C24.5 42 28 36 28 28 C28 20 24.5 14 24.5 14 C24.5 14 21 20 21 28 C21 36 24.5 42 24.5 42Z"/><path fill="#000000" stroke="none" d="M8 24 C8 24 15 21 22 24 C29 27 33 34 33 34" stroke="#000000" stroke-width="1" fill="none"/><line x1="24.5" y1="42" x2="22" y2="46" stroke="#000000" stroke-width="2" stroke-linecap="round"/></svg>
